# xmcd
#
# Track frame offsets:
#	150
#	14040
#	34965
#	49755
#	68012
#	84647
#	106417
#	121560
#	141805
#	157922
#	171750
#	194227
#	213745
#	231387
#	246865
#	262390
#
# Disc length: 3756 seconds
#
# Revision: 2
# Processed by: cddbd v1.5.2PL0 Copyright (c) Steve Scherf et al.
# Submitted via: audiograbber 1.83.01
#
DISCID=f00eaa10
DTITLE=MH1096 Monster Hits - Male Country Hits (MH)
DYEAR=2008
DGENRE=Karaoke
TTITLE0=Tim McGraw - Something Like That (MH)
TTITLE1=Tim McGraw - Please Remember Me (MH)
TTITLE2=Kenny Chesney - How Forever Feels (MH)
TTITLE3=Lonestar - Amazed (MH)
TTITLE4=Ty Herndon - Steam (MH)
TTITLE5=Brad Paisley - He Didn't Have To Be (MH)
TTITLE6=Yankee Grey - Another Nine Minutes (MH)
TTITLE7=Kenny Chesney - She Thinks My Tractor Sexy (MH)
TTITLE8=Toby Keith - How Do You Like Me Now? (MH)
TTITLE9=Garth Brooks - Do What You Gotta Do (MH)
TTITLE10=Tim McGraw - My Best Friend (MH)
TTITLE11=Mark Wills - Back At One (MH)
TTITLE12=Clint Black and Steve Wariner - Been There (MH)
TTITLE13=George Strait - The Best Day (MH)
TTITLE14=Steve Holy - Don't Make Me Beg (MH)
TTITLE15=Andy Griggs - You Won't ever Be Lonely (MH)
EXTD=
EXTT0=
EXTT1=
EXTT2=
EXTT3=
EXTT4=
EXTT5=
EXTT6=
EXTT7=
EXTT8=
EXTT9=
EXTT10=
EXTT11=
EXTT12=
EXTT13=
EXTT14=
EXTT15=
PLAYORDER=
